<svg width="61" height="45" viewBox="0 0 61 45" fill="none" xmlns="http://www.w3.org/2000/svg">
<g clip-path="url(#clip0_706_163)">
<path d="M13.138 23.0882V36.4706H10.4044V23.0882H13.138ZM17.2339 23.0882V25.2482H6.37244V23.0882H17.2339ZM26.2578 32.0311H28.9915C28.9365 32.932 28.6897 33.7316 28.2509 34.4301C27.8182 35.1286 27.2117 35.6739 26.4316 36.0661C25.6574 36.4584 24.7249 36.6544 23.6338 36.6544C22.7805 36.6544 22.0156 36.5073 21.339 36.2132C20.6625 35.9129 20.0835 35.4841 19.6019 34.9264C19.1265 34.3688 18.7638 33.6948 18.5138 32.9044C18.264 32.1139 18.1391 31.2285 18.1391 30.2482V29.3198C18.1391 28.3394 18.2671 27.4541 18.5231 26.6635C18.7852 25.867 19.1569 25.19 19.6385 24.6323C20.126 24.0747 20.7081 23.6459 21.3848 23.3456C22.0612 23.0453 22.8171 22.8953 23.6522 22.8953C24.7614 22.8953 25.6971 23.0973 26.4589 23.5017C27.2269 23.9061 27.8212 24.4638 28.2417 25.1747C28.6684 25.8854 28.9244 26.6942 29.0097 27.6011H26.2668C26.2364 27.0619 26.1298 26.6054 25.9469 26.2316C25.7641 25.8517 25.4867 25.5667 25.115 25.3767C24.7493 25.1807 24.2616 25.0826 23.6522 25.0826C23.1949 25.0826 22.7957 25.1685 22.4544 25.34C22.1131 25.5116 21.8266 25.772 21.595 26.1213C21.3634 26.4706 21.1897 26.9117 21.0738 27.4448C20.9641 27.9717 20.9094 28.5907 20.9094 29.3014V30.2482C20.9094 30.9406 20.9612 31.5503 21.0647 32.0772C21.1683 32.5981 21.3269 33.0392 21.5402 33.4007C21.7596 33.7561 22.04 34.0257 22.3813 34.2095C22.7287 34.3872 23.1462 34.4761 23.6338 34.4761C24.2067 34.4761 24.6791 34.3841 25.0509 34.2003C25.4228 34.0164 25.7061 33.7438 25.9011 33.3823C26.1024 33.0209 26.2212 32.5704 26.2578 32.0311ZM41.6358 23.0882V36.4706H38.893V25.2482H33.5444V36.4706H30.8016V23.0882H41.6358ZM46.783 23.0882V36.4706H44.0402V23.0882H46.783ZM54.6276 23.0882L49.5258 30.9467H46.1705L45.8231 28.4926H48.063L51.2997 23.0882H54.6276ZM51.8024 36.4706L48.0722 30.487L49.9739 28.5203L55.0572 36.4706H51.8024Z" fill="white" fill-opacity="0.8"/>
<path fill-rule="evenodd" clip-rule="evenodd" d="M28.7304 2.61356L30.5 0L32.2696 2.61356L44.3398 20.4412H40.8008L30.5 5.2271L20.1992 20.4412H16.6601L28.7304 2.61356ZM3.71629 39.5588L2.02364 42.0588L0.0322876 45H3.57136H57.4286H60.9676L58.9763 42.0588L57.2837 39.5588H53.7446L55.4373 42.0588H5.56271L7.25535 39.5588H3.71629Z" fill="white" fill-opacity="0.8"/>
</g>
<defs>
<clipPath id="clip0_706_163">
<rect width="61" height="45" fill="white"/>
</clipPath>
</defs>
</svg>
